# xmcd
#
# Track frame offsets:
#	150
#	16960
#	22237
#	37262
#	43605
#	48575
#	78717
#	97020
#	133580
#	144427
#	160250
#	167832
#	173182
#
# Disc length: 2639 seconds
#
# Revision: 1
# Processed by: cddbd v1.5.1PL0 Copyright (c) Steve Scherf et al.
# Submitted via: CDex 1.50Beta5
#
DISCID=b60a4d0d
DTITLE=ふくやま劇場 - ふくやま劇場 「なつのひみつ」
DYEAR=1900
DGENRE=
TTITLE0=月のことば
TTITLE1=ねずみの親子
TTITLE2=にんじんブギ
TTITLE3=なつのひみつ
TTITLE4=不思議な妖精
TTITLE5=青い砂丘
TTITLE6=Fairy Taleは終わらない〜チカチカのテーマ〜
TTITLE7=へのへの
TTITLE8=KURO
TTITLE9=うさきのダンス
TTITLE10=学期末清掃大会
TTITLE11=おりがみ姫
TTITLE12=海のセレナーデ
EXTD=
EXTT0=
EXTT1=
EXTT2=
EXTT3=
EXTT4=
EXTT5=
EXTT6=
EXTT7=
EXTT8=
EXTT9=
EXTT10=
EXTT11=
EXTT12=
PLAYORDER=
